<?xml version="1.0" encoding="UTF-8" standalone="no"?>
<svg width="101px" height="1363px" viewBox="0 0 101 1363" version="1.1" xmlns="http://www.w3.org/2000/svg" xmlns:xlink="http://www.w3.org/1999/xlink">
    <!-- Generator: Sketch 41.2 (35397) - http://www.bohemiancoding.com/sketch -->
    <title>ALL ICON</title>
    <desc>Created with Sketch.</desc>
    <defs>
        <path d="M5.98937625,13.1221472 L6.0008629,0 L32,0.0789113853 L32,26.0003364 C32,27.6570048 30.6495018,29 29.0035095,29 L4,29" id="path-1"></path>
        <mask id="mask-2" maskContentUnits="userSpaceOnUse" maskUnits="objectBoundingBox" x="0" y="0" width="28" height="29" fill="white">
            <use xlink:href="#path-1"></use>
        </mask>
        <rect id="path-3" x="0" y="13" width="8" height="16"></rect>
        <mask id="mask-4" maskContentUnits="userSpaceOnUse" maskUnits="objectBoundingBox" x="0" y="0" width="8" height="16" fill="white">
            <use xlink:href="#path-3"></use>
        </mask>
    </defs>
    <g id="Page-1" stroke="none" stroke-width="1" fill="none" fill-rule="evenodd">
        <g id="ALL-ICON">
            <g id="Gear-Icon" transform="translate(37.000000, 704.000000)" fill="#FFFFFF">
                <path d="M17.6210526,30.8857895 L13.2647368,30.8857895 L12.0076053,27.1168421 C11.1763158,26.8729211 10.3752105,26.5408947 9.61571053,26.1264737 L6.06376316,27.9024474 L2.98252632,24.8220263 L4.75931579,21.2692632 C4.34489474,20.5113947 4.01368421,19.7102895 3.76894737,18.8773684 L0,17.6210526 L0,13.2647368 L3.76894737,12.0084211 C4.01368421,11.1755 4.34489474,10.3743947 4.75931579,9.61652632 L2.98252632,6.06376316 L6.06376316,2.98252632 L9.61571053,4.75931579 C10.3752105,4.34489474 11.1763158,4.01286842 12.0076053,3.76894737 L13.2647368,0 L17.6210526,0 L18.8781842,3.76894737 C19.7086579,4.01286842 20.5105789,4.34489474 21.2700789,4.75931579 L24.8220263,2.98252632 L27.9032632,6.06376316 L26.1264737,9.61652632 C26.5408947,10.3743947 26.8721053,11.1755 27.1168421,12.0084211 L30.8857895,13.2647368 L30.8857895,17.6210526 L27.1168421,18.8773684 C26.8721053,19.7102895 26.5408947,20.5113947 26.1264737,21.2692632 L27.9032632,24.8220263 L24.8220263,27.9024474 L21.2700789,26.1264737 C20.5105789,26.5408947 19.7086579,26.8729211 18.8781842,27.1168421 L17.6210526,30.8857895 Z M15.4428947,22.7278947 C11.4259474,22.7278947 8.15789474,19.4598421 8.15789474,15.4428947 C8.15789474,11.4259474 11.4259474,8.15789474 15.4428947,8.15789474 C19.4598421,8.15789474 22.7278947,11.4259474 22.7278947,15.4428947 C22.7278947,19.4598421 19.4598421,22.7278947 15.4428947,22.7278947 Z" id="Fill-46"></path>
            </g>
            <g id="Grid-Icon" transform="translate(36.000000, 646.000000)" fill="#FFFFFF">
                <rect id="Rectangle-11" x="0.998441459" y="0.375" width="12.6358696" height="12.2282609"></rect>
                <rect id="Rectangle-11-Copy" x="0.998441459" y="16.2717391" width="12.6358696" height="12.2282609"></rect>
                <rect id="Rectangle-11-Copy-2" x="17.4250719" y="16.2717391" width="12.6358696" height="12.2282609"></rect>
                <rect id="Rectangle-11-Copy-3" x="17.4250719" y="0.375" width="12.6358696" height="12.2282609"></rect>
            </g>
            <g id="Storage-Icon" transform="translate(33.000000, 160.000000)" fill="#FFFFFF">
                <path d="M34,8 L32,8 L32,3 C32,2.449 31.552,2 31,2 L3,2 C2.448,2 2,2.449 2,3 L2,8 L0,8 L0,3 C0,1.346 1.346,0 3,0 L31,0 C32.654,0 34,1.346 34,3 L34,8" id="Fill-180"></path>
                <path d="M29,28 L5,28 C3.346,28 2,26.654 2,25 L2,8 L4,8 L4,25 C4,25.551 4.448,26 5,26 L29,26 C29.552,26 30,25.551 30,25 L30,8 L32,8 L32,25 C32,26.654 30.654,28 29,28" id="Fill-181"></path>
                <path d="M21,14 L13,14 C12.447,14 12,13.552 12,13 C12,12.448 12.447,12 13,12 L21,12 C21.553,12 22,12.448 22,13 C22,13.552 21.553,14 21,14" id="Fill-182"></path>
                <polygon id="Fill-183" points="2 6 32 6 32 8 2 8"></polygon>
            </g>
            <g id="Tag-Icon" transform="translate(35.000000, 222.000000)" fill="#FFFFFF">
                <path d="M13,28.086 C12.144,28.086 11.34,27.754 10.737,27.151 L1.849,18.263 C0.601,17.015 0.601,14.985 1.849,13.737 L13.737,1.849 C14.774,0.812 16.734,0 18.2,0 L25.8,0 C27.564,0 29,1.435 29,3.2 L29,10.8 C29,12.266 28.188,14.226 27.151,15.263 L15.263,27.151 C14.66,27.754 13.856,28.086 13,28.086 L13,28.086 Z M18.2,2 C17.249,2 15.824,2.59 15.151,3.263 L3.263,15.151 C2.795,15.619 2.795,16.381 3.263,16.849 L12.151,25.737 C12.602,26.186 13.398,26.186 13.849,25.737 L25.737,13.849 C26.41,13.176 27,11.751 27,10.8 L27,3.2 C27,2.539 26.461,2 25.8,2 L18.2,2 L18.2,2 Z" id="Fill-129"></path>
                <path d="M21,11.93 C18.833,11.93 17.07,10.167 17.07,8 C17.07,5.833 18.833,4.07 21,4.07 C23.167,4.07 24.93,5.833 24.93,8 C24.93,10.167 23.167,11.93 21,11.93 L21,11.93 Z M21,5.93 C19.858,5.93 18.93,6.858 18.93,8 C18.93,9.142 19.858,10.07 21,10.07 C22.142,10.07 23.07,9.142 23.07,8 C23.07,6.858 22.142,5.93 21,5.93 L21,5.93 Z" id="Fill-130"></path>
            </g>
            <g id="Calendar-Icon" transform="translate(35.000000, 534.000000)" fill="#FFFFFF">
                <path d="M27,30 L3,30 C1.346,30 0,28.654 0,27 L0,5 C0,3.346 1.122,2 2.5,2 L4,2 L4,4 L2.5,4 C2.328,4 2,4.39 2,5 L2,27 C2,27.551 2.449,28 3,28 L27,28 C27.551,28 28,27.551 28,27 L28,5 C28,4.39 27.672,4 27.5,4 L26,4 L26,2 L27.5,2 C28.878,2 30,3.346 30,5 L30,27 C30,28.654 28.654,30 27,30" id="Fill-133"></path>
                <path d="M7,6 C6.448,6 6,5.552 6,5 L6,1 C6,0.448 6.448,0 7,0 C7.552,0 8,0.448 8,1 L8,5 C8,5.552 7.552,6 7,6" id="Fill-134"></path>
                <path d="M23,6 C22.448,6 22,5.552 22,5 L22,1 C22,0.448 22.448,0 23,0 C23.552,0 24,0.448 24,1 L24,5 C24,5.552 23.552,6 23,6" id="Fill-135"></path>
                <polygon id="Fill-136" points="10 2 20 2 20 4 10 4"></polygon>
                <polygon id="Fill-137" points="2 8 28 8 28 10 2 10"></polygon>
                <polygon id="Fill-138" points="24 12 26 12 26 14 24 14"></polygon>
                <polygon id="Fill-139" points="20 12 22 12 22 14 20 14"></polygon>
                <polygon id="Fill-140" points="16 12 18 12 18 14 16 14"></polygon>
                <polygon id="Fill-141" points="12 12 14 12 14 14 12 14"></polygon>
                <polygon id="Fill-142" points="8 12 10 12 10 14 8 14"></polygon>
                <polygon id="Fill-143" points="24 16 26 16 26 18 24 18"></polygon>
                <polygon id="Fill-144" points="20 16 22 16 22 18 20 18"></polygon>
                <polygon id="Fill-145" points="16 16 18 16 18 18 16 18"></polygon>
                <polygon id="Fill-146" points="12 16 14 16 14 18 12 18"></polygon>
                <polygon id="Fill-147" points="8 16 10 16 10 18 8 18"></polygon>
                <polygon id="Fill-148" points="4 16 6 16 6 18 4 18"></polygon>
                <polygon id="Fill-149" points="24 20 26 20 26 22 24 22"></polygon>
                <polygon id="Fill-150" points="20 20 22 20 22 22 20 22"></polygon>
                <polygon id="Fill-151" points="16 20 18 20 18 22 16 22"></polygon>
                <polygon id="Fill-152" points="12 20 14 20 14 22 12 22"></polygon>
                <polygon id="Fill-153" points="8 20 10 20 10 22 8 22"></polygon>
                <polygon id="Fill-154" points="4 20 6 20 6 22 4 22"></polygon>
                <polygon id="Fill-155" points="20 24 22 24 22 26 20 26"></polygon>
                <polygon id="Fill-156" points="16 24 18 24 18 26 16 26"></polygon>
                <polygon id="Fill-157" points="12 24 14 24 14 26 12 26"></polygon>
                <polygon id="Fill-158" points="8 24 10 24 10 26 8 26"></polygon>
                <polygon id="Fill-159" points="4 24 6 24 6 26 4 26"></polygon>
            </g>
            <g id="Envelope-Icon" transform="translate(33.000000, 350.000000)" fill="#FFFFFF">
                <path d="M33.658,3.658 L32.342,2.342 L19.878,14.807 C18.291,16.394 15.709,16.394 14.122,14.807 L1.658,2.342 L0.342,3.658 L9.649,12.964 L0.342,22.271 L1.658,23.586 L10.964,14.28 L12.807,16.122 C13.927,17.242 15.416,17.859 17,17.859 C18.584,17.859 20.073,17.242 21.193,16.122 L23.036,14.28 L32.342,23.586 L33.658,22.271 L24.351,12.964 L33.658,3.658" id="Fill-3"></path>
                <path d="M31,26 L3,26 C1.346,26 0,24.654 0,23 L0,3 C0,1.346 1.346,0 3,0 L31,0 C32.654,0 34,1.346 34,3 L34,23 C34,24.654 32.654,26 31,26 L31,26 Z M3,2 C2.449,2 2,2.449 2,3 L2,23 C2,23.551 2.449,24 3,24 L31,24 C31.551,24 32,23.551 32,23 L32,3 C32,2.449 31.551,2 31,2 L3,2 L3,2 Z" id="Fill-4"></path>
            </g>
            <g id="Comment-Icon" transform="translate(33.000000, 409.000000)" fill="#FFFFFF">
                <path d="M7,31.92 L5.191,31.92 L6.256,30.458 C7.062,29.353 7.589,27.944 7.859,26.165 C2.835,23.919 0.08,19.625 0.08,14 C0.08,5.414 6.564,0.08 17,0.08 C27.436,0.08 33.92,5.414 33.92,14 C33.92,22.716 27.595,27.92 17,27.92 C16.764,27.92 16.531,27.914 16.299,27.905 C14.71,29.82 11.859,31.92 7,31.92 L7,31.92 Z M17,1.92 C7.558,1.92 1.92,6.436 1.92,14 C1.92,20.489 5.88,23.419 9.202,24.734 L9.855,24.993 L9.777,25.692 C9.593,27.35 9.225,28.768 8.659,29.98 C12.056,29.557 14.036,27.863 15.135,26.412 L15.425,26.029 L16.042,26.054 C16.359,26.067 16.677,26.08 17,26.08 C30.61,26.08 32.08,17.632 32.08,14 C32.08,6.436 26.442,1.92 17,1.92 L17,1.92 Z" id="Fill-59"></path>
            </g>
            <g id="More-Icon" transform="translate(35.000000, 610.000000)" fill="#FFFFFF">
                <circle id="Oval-21" cx="3" cy="3" r="3"></circle>
                <circle id="Oval-21-Copy" cx="15" cy="3" r="3"></circle>
                <circle id="Oval-21-Copy-2" cx="27" cy="3" r="3"></circle>
            </g>
            <g id="Clock-Icon" transform="translate(33.000000, 471.000000)" fill="#FFFFFF">
                <path d="M17,33.93 C7.665,33.93 0.07,26.335 0.07,17 C0.07,7.665 7.665,0.07 17,0.07 C26.335,0.07 33.93,7.665 33.93,17 C33.93,26.335 26.335,33.93 17,33.93 L17,33.93 Z M17,1.93 C8.69,1.93 1.93,8.69 1.93,17 C1.93,25.31 8.69,32.07 17,32.07 C25.31,32.07 32.07,25.31 32.07,17 C32.07,8.69 25.31,1.93 17,1.93 L17,1.93 Z" id="Fill-131"></path>
                <polyline id="Fill-132" points="22.293 25.707 16 19.414 16 8 18 8 18 18.586 23.707 24.293 22.293 25.707"></polyline>
            </g>
            <g id="Eye-Icon" transform="translate(33.000000, 39.000000)" fill="#FFFFFF">
                <path d="M17,21.93 C5.557,21.93 0.383,11.845 0.168,11.416 C0.037,11.154 0.037,10.846 0.168,10.584 C0.383,10.155 5.557,0.07 17,0.07 C28.443,0.07 33.617,10.155 33.832,10.584 C33.963,10.846 33.963,11.154 33.832,11.416 C33.617,11.845 28.443,21.93 17,21.93 L17,21.93 Z M2.065,11 C3.145,12.833 7.981,20.07 17,20.07 C26.019,20.07 30.855,12.833 31.935,11 C30.855,9.167 26.019,1.93 17,1.93 C7.981,1.93 3.145,9.167 2.065,11 L2.065,11 Z" id="Fill-174"></path>
                <path d="M17,19.93 C12.076,19.93 8.07,15.924 8.07,11 C8.07,6.076 12.076,2.07 17,2.07 C21.924,2.07 25.93,6.076 25.93,11 C25.93,15.924 21.924,19.93 17,19.93 L17,19.93 Z M17,3.93 C13.102,3.93 9.93,7.102 9.93,11 C9.93,14.898 13.102,18.07 17,18.07 C20.898,18.07 24.07,14.898 24.07,11 C24.07,7.102 20.898,3.93 17,3.93 L17,3.93 Z" id="Fill-175"></path>
                <path d="M17,15.93 C14.281,15.93 12.07,13.718 12.07,11 C12.07,10.486 12.486,10.07 13,10.07 C13.514,10.07 13.93,10.486 13.93,11 C13.93,12.693 15.308,14.07 17,14.07 C18.692,14.07 20.07,12.693 20.07,11 C20.07,9.307 18.692,7.93 17,7.93 C16.486,7.93 16.07,7.514 16.07,7 C16.07,6.486 16.486,6.07 17,6.07 C19.719,6.07 21.93,8.282 21.93,11 C21.93,13.718 19.719,15.93 17,15.93" id="Fill-176"></path>
            </g>
            <g id="Chart-Icon" transform="translate(34.000000, 98.000000)" fill="#FFFFFF">
                <polyline id="Fill-164" points="10 24 8 24 8 14 4 14 4 24 2 24 2 12 10 12 10 24"></polyline>
                <polyline id="Fill-165" points="20 24 18 24 18 8 14 8 14 24 12 24 12 6 20 6 20 24"></polyline>
                <polyline id="Fill-166" points="30 24 28 24 28 2 24 2 24 24 22 24 22 0 30 0 30 24"></polyline>
                <polygon id="Fill-167" points="0 24 32 24 32 26 0 26"></polygon>
            </g>
            <g id="IKONA-RAČUNI" transform="translate(34.000000, 282.000000)" stroke="#FFFFFF">
                <use id="Line-81" mask="url(#mask-2)" stroke-width="4" xlink:href="#path-1"></use>
                <use id="Line-80" mask="url(#mask-4)" stroke-width="4" stroke-linecap="round" stroke-linejoin="round" xlink:href="#path-3"></use>
                <path d="M13,21 L25,21" id="Line-77" stroke-width="2" stroke-linecap="round" stroke-linejoin="round"></path>
                <path d="M13,15 L25,15" id="Line-77-Copy-2" stroke-width="2" stroke-linecap="round" stroke-linejoin="round"></path>
                <path d="M13,9 L25,9" id="Line-77-Copy-3" stroke-width="2" stroke-linecap="round" stroke-linejoin="round"></path>
            </g>
            <g id="Group-2" transform="translate(35.000000, 858.000000)" fill="#FFFFFF">
                <g id="Fill-38-+-Fill-39-+-Fill-40">
                    <path d="M17,33.93 C7.665,33.93 0.07,26.335 0.07,17 C0.07,7.665 7.665,0.07 17,0.07 C26.335,0.07 33.93,7.665 33.93,17 C33.93,26.335 26.335,33.93 17,33.93 L17,33.93 Z M17,1.93 C8.69,1.93 1.93,8.69 1.93,17 C1.93,25.31 8.69,32.07 17,32.07 C25.31,32.07 32.07,25.31 32.07,17 C32.07,8.69 25.31,1.93 17,1.93 L17,1.93 Z" id="Fill-38"></path>
                    <polygon id="Fill-39" points="8 16 26 16 26 18 8 18"></polygon>
                    <polygon id="Fill-40" points="16 8 18 8 18 26 16 26"></polygon>
                </g>
            </g>
            <polygon id="Next" fill="#FFFFFF" transform="translate(52.500000, 821.560000) rotate(-180.000000) translate(-52.500000, -821.560000) " points="48 821.56 55.56 814 57 815.44 50.88 821.56 57 827.68 55.56 829.12"></polygon>
            <polygon id="Back" fill="#FFFFFF" points="47 776.56 54.56 769 56 770.44 49.88 776.56 56 782.68 54.56 784.12"></polygon>
            <g id="username" transform="translate(38.000000, 944.000000)">
                <path d="M11.5,13.5953177 C8.29375,13.5953177 2,15.1996656 2,18.5317726 L2,21 L21,21 L21,18.5317726 C21,15.1996656 14.70625,13.5953177 11.5,13.5953177 L11.5,13.5953177 Z M11.5,11.6688963 C13.85125,11.6688963 15.775,9.71839465 15.775,7.33444816 C15.775,4.95050167 13.85125,3 11.5,3 C9.14875,3 7.225,4.95050167 7.225,7.33444816 C7.225,9.71839465 9.14875,11.6688963 11.5,11.6688963 L11.5,11.6688963 Z" id="shape" fill="#9B9B9B"></path>
                <rect id="bounds" x="0" y="0" width="24" height="24"></rect>
            </g>
            <g id="password" transform="translate(38.000000, 1010.000000)">
                <g id="group" transform="translate(2.412935, 1.440000)">
                    <rect id="shape" fill="#9B9B9B" x="0" y="7.97454545" width="18.8326659" height="12.1963636" rx="4"></rect>
                    <path d="M3.76653319,9 L3.76653319,6.28676471 C3.76653319,2.82024265 6.30103337,0 9.41633297,0 C12.5316326,0 15.0661328,2.82024265 15.0661328,6.28676471 L15.0661328,9" id="shape" stroke="#9B9B9B" stroke-width="2"></path>
                    <path d="M9.41633297,12.7737063 L9.41633297,15.3807536" id="line" stroke="#FFFFFF" stroke-width="2" stroke-linecap="square"></path>
                </g>
                <rect id="bounds" x="0" y="0" width="24.1293532" height="24"></rect>
            </g>
            <g id="Settings" opacity="0.77" transform="translate(35.000000, 1076.000000)" fill="#FFFFFF">
                <path d="M19.3889474,33.9373684 L14.6110526,33.9373684 L13.2322632,29.8036842 C12.3205263,29.5361579 11.4418947,29.172 10.6088947,28.7174737 L6.71321053,30.6653158 L3.33378947,27.2867895 L5.28252632,23.3902105 C4.828,22.559 4.46473684,21.6803684 4.19631579,20.7668421 L0.0626315789,19.3889474 L0.0626315789,14.6110526 L4.19631579,13.2331579 C4.46473684,12.3196316 4.828,11.441 5.28252632,10.6097895 L3.33378947,6.71321053 L6.71321053,3.33378947 L10.6088947,5.28252632 C11.4418947,4.828 12.3205263,4.46384211 13.2322632,4.19631579 L14.6110526,0.0626315789 L19.3889474,0.0626315789 L20.7677368,4.19631579 C21.6785789,4.46384211 22.5581053,4.828 23.3911053,5.28252632 L27.2867895,3.33378947 L30.6662105,6.71321053 L28.7174737,10.6097895 C29.172,11.441 29.5352632,12.3196316 29.8036842,13.2331579 L33.9373684,14.6110526 L33.9373684,19.3889474 L29.8036842,20.7668421 C29.5352632,21.6803684 29.172,22.559 28.7174737,23.3902105 L30.6662105,27.2867895 L27.2867895,30.6653158 L23.3911053,28.7174737 C22.5581053,29.172 21.6785789,29.5361579 20.7677368,29.8036842 L19.3889474,33.9373684 Z M17,24.99 C12.5943158,24.99 9.01,21.4056842 9.01,17 C9.01,12.5943158 12.5943158,9.01 17,9.01 C21.4056842,9.01 24.99,12.5943158 24.99,17 C24.99,21.4056842 21.4056842,24.99 17,24.99 Z" id="Fill-46"></path>
            </g>
            <g id="LOG-OUT-ICON" transform="translate(38.000000, 1152.000000)" fill="#9F9FB0">
                <g id="Group-3" transform="translate(0.000000, 0.005178)">
                    <path d="M11.7418067,24.0665888 L19.7090876,24.0665888 L19.7090876,17.9524315 L21.9210427,17.9524315 C21.9289528,18.0700045 21.9429753,18.1811056 21.9429753,18.2925663 C21.9440539,20.5397573 21.9451326,22.7865888 21.9429753,25.0334202 C21.9422562,25.8805213 21.5179865,26.3055101 20.6669303,26.3062292 C17.8584809,26.3087461 15.0496719,26.3073079 12.2412225,26.3073079 L11.7410876,26.3073079 L11.7410876,26.7038921 C11.7414472,27.9091056 11.7421663,29.1146787 11.7421663,30.3198921 C11.7421663,31.4715326 10.9018966,31.9716674 9.90737978,31.4082517 C7.04931236,29.7891955 4.1923236,28.1683416 1.33497528,26.5482067 C1.24328989,26.4964315 1.15699775,26.428836 1.0592,26.3953978 C0.199874157,26.0987685 -0.00291235955,25.4803416 -3.59550565e-05,24.6134652 C0.0265707865,16.9600719 0.0154247191,9.3063191 0.0154247191,1.65256629 C0.0154247191,0.795757303 0.454076404,0.355307865 1.31088539,0.355307865 C7.75906517,0.354948315 14.2072449,0.354588764 20.6554247,0.354229213 C21.5032449,0.354229213 21.9415371,0.777420225 21.9426157,1.61804944 C21.9462112,4.48510562 21.944773,7.3521618 21.9444135,10.2195775 C21.9444135,10.3004764 21.933627,10.3813753 21.9260764,10.4892404 L19.7270652,10.4892404 L19.7270652,2.61076854 L5.48203146,2.61076854 C5.67798652,2.72726292 5.80203146,2.80456629 5.92931236,2.87683596 C7.60661573,3.82892584 9.27852584,4.7914427 10.9655371,5.72627416 C11.5063011,6.02613933 11.750436,6.4256 11.7489978,7.05049888 C11.736773,12.5857798 11.7418067,18.1214202 11.7418067,23.6567011 L11.7418067,24.0665888" id="Fill-1"></path>
                </g>
                <path d="M24.2621843,15.7948045 L23.7429933,15.7948045 C21.9524315,15.7948045 20.1615101,15.801636 18.3709483,15.7922876 C17.1639371,15.7858157 16.391982,14.6273438 16.8921169,13.576018 C17.1955775,12.9388944 17.7323865,12.6649169 18.4266787,12.665636 C20.2291056,12.6674337 22.0315326,12.665636 23.8339596,12.665636 C23.9601618,12.6652764 24.0867236,12.665636 24.2416899,12.665636 C24.2492404,12.5228944 24.2596674,12.4099955 24.260027,12.2970966 C24.2621843,11.4776809 24.2618247,10.6582652 24.2629034,9.83920899 C24.2632629,9.54977079 24.3581843,9.30563596 24.6307236,9.1715236 C24.8975101,9.04028764 25.148836,9.08990562 25.387218,9.26320899 C27.4028584,10.7283775 29.4220944,12.1881528 31.4348584,13.6569169 C31.8771056,13.9797933 31.8803416,14.4799281 31.4395326,14.8017258 C29.4177798,16.2784 27.3899146,17.7464449 25.3638472,19.2170067 C25.1380494,19.3809618 24.8942742,19.4269843 24.6382742,19.2957483 C24.3696899,19.1580404 24.2636225,18.9218157 24.2632629,18.6309393 C24.2621843,17.8348944 24.2625438,17.039209 24.2621843,16.243164 L24.2621843,15.7948045" id="Fill-4"></path>
            </g>
            <path d="M54.8749965,1244 L58.976951,1239.89805 C59.6213755,1239.25362 59.6223037,1238.21103 58.9798282,1237.56856 C58.3328736,1236.9216 57.2944061,1236.92737 56.6503416,1237.57144 L52.5483871,1241.67339 L47.8980455,1237.02305 C47.253621,1236.37862 46.2110343,1236.3777 45.5685589,1237.02017 C44.9216042,1237.66713 44.9273716,1238.70559 45.5714361,1239.34966 L50.2217777,1244 L45.023049,1249.19873 C44.3786245,1249.84315 44.3776963,1250.88574 45.0201718,1251.52822 C45.6671264,1252.17517 46.7055939,1252.1694 47.3496584,1251.52534 L52.5483871,1246.32661 L57.1987287,1250.97695 C57.8431532,1251.62138 58.8857399,1251.6223 59.5282153,1250.97983 C60.17517,1250.33287 60.1694026,1249.29441 59.5253381,1248.65034 L54.8749965,1244 Z M52,1261 C61.3888407,1261 69,1253.38884 69,1244 C69,1234.61116 61.3888407,1227 52,1227 C42.6111593,1227 35,1234.61116 35,1244 C35,1253.38884 42.6111593,1261 52,1261 Z" id="Clear" fill="#FFFFFF"></path>
            <path d="M36.1670881,1316.27953 C35.5801285,1315.69257 35.5832144,1314.73783 36.1670881,1314.15396 L46.6114162,1303.70963 C47.0033334,1303.31771 47.7713345,1303 48.3176403,1303 L65.3802184,1303 C67.313095,1303 68.8800011,1304.56559 68.8800011,1306.50072 L68.8800011,1323.93276 C68.8800011,1325.86616 67.3121682,1327.43348 65.3802184,1327.43348 L48.3176402,1327.43348 C47.7672359,1327.43348 47.0067796,1327.11922 46.6114162,1326.72385 L36.1670881,1316.27953 Z M57.5869352,1315.18468 L61.7065595,1311.06505 C62.091837,1310.67977 62.0970729,1310.03997 61.7056855,1309.64859 L61.5985762,1309.54148 C61.213203,1309.1561 60.5730158,1309.1497 60.1821111,1309.5406 L56.0624869,1313.66023 L51.9428627,1309.5406 C51.5575851,1309.15533 50.9177849,1309.15009 50.5263976,1309.54148 L50.4192883,1309.64859 C50.033915,1310.03396 50.0275096,1310.67415 50.4184143,1311.06505 L54.5380385,1315.18468 L50.4184143,1319.3043 C50.0331367,1319.68958 50.0279009,1320.32938 50.4192883,1320.72077 L50.5263976,1320.82787 C50.9117708,1321.21325 51.551958,1321.21965 51.9428627,1320.82875 L56.0624869,1316.70912 L60.1821111,1320.82875 C60.5673887,1321.21403 61.2071888,1321.21926 61.5985762,1320.82787 L61.7056855,1320.72077 C62.0910588,1320.33539 62.0974642,1319.69521 61.7065595,1319.3043 L57.5869352,1315.18468 Z M38.6862903,1315.9242 C38.2955714,1315.53348 38.2909646,1314.90461 38.6862902,1314.50928 L47.6816061,1305.51397 C47.8793632,1305.31621 48.2625282,1305.1559 48.5394403,1305.1559 L64.7245431,1305.1559 C65.8288702,1305.1559 66.7241041,1306.04646 66.7241041,1307.1588 L66.7241041,1323.27468 C66.7241041,1324.38085 65.8229154,1325.27759 64.7245431,1325.27759 L48.5394406,1325.27759 C48.2634289,1325.27759 47.8816454,1325.11956 47.6816064,1324.91952 L38.6862903,1315.9242 Z" id="Back" fill="#FFFFFF"></path>
        </g>
    </g>
</svg>